<svg xmlns="http://www.w3.org/2000/svg" xmlns:xlink="http://www.w3.org/1999/xlink" version="1.1" id="Слой_1" x="0px" y="0px" style="enable-background:new 0 0 727 455;" xml:space="preserve" viewBox="21.8 138.2 442.3 95">
<style type="text/css">
	.st0{fill:#303C6C;}
	.st1{fill:#212121;}
	.st2{fill:#FFFFFF;}
</style>
<g>
	<g>
		<g>
			<path class="st0" d="M139.5,189.7c-0.7,0-1.3-0.2-1.7-0.7c-0.5-0.5-0.7-1.1-0.7-1.8v-32.5c0-0.7,0.2-1.3,0.7-1.8     c0.5-0.5,1-0.7,1.7-0.7h21.1c0.7,0,1.3,0.2,1.7,0.6c0.4,0.4,0.7,1,0.7,1.7c0,0.7-0.2,1.2-0.7,1.6c-0.4,0.4-1,0.6-1.7,0.6h-18.7     v11.7h13.4c0.7,0,1.3,0.2,1.7,0.6c0.4,0.4,0.7,1,0.7,1.7s-0.2,1.2-0.7,1.7c-0.4,0.4-1,0.6-1.7,0.6h-13.4v12h18.7     c0.7,0,1.3,0.2,1.7,0.6c0.4,0.4,0.7,1,0.7,1.6c0,0.7-0.2,1.3-0.7,1.7c-0.4,0.4-1,0.6-1.7,0.6H139.5z"/>
			<path class="st0" d="M172.4,189.7c-0.7,0-1.3-0.2-1.7-0.7c-0.5-0.5-0.7-1.1-0.7-1.8v-32.5c0-0.7,0.2-1.3,0.7-1.8     c0.5-0.5,1-0.7,1.7-0.7h19.3c0.7,0,1.3,0.2,1.7,0.6c0.4,0.4,0.7,1,0.7,1.7c0,0.7-0.2,1.2-0.7,1.6c-0.4,0.4-1,0.6-1.7,0.6h-16.9     v30.4c0,0.7-0.2,1.3-0.7,1.8C173.7,189.5,173.1,189.7,172.4,189.7z"/>
			<path class="st0" d="M210.1,190.2c-2.1,0-4.1-0.4-6-1.1c-1.9-0.7-3.7-1.7-5.4-3.1c-0.2-0.3-0.4-0.5-0.6-0.8     c-0.1-0.3-0.2-0.6-0.2-0.9c0-0.7,0.2-1.3,0.6-1.7c0.4-0.4,0.8-0.6,1.4-0.7c0.6,0,1.1,0.1,1.6,0.6c1.3,1,2.7,1.8,4.1,2.3     c1.4,0.6,2.9,0.8,4.5,0.8c1.8,0,3.6-0.4,5.2-1.1c1.6-0.8,3-1.8,4.3-3.1c1.2-1.3,2.2-2.9,2.9-4.7c0.7-1.8,1-3.7,1-5.7     c0-2-0.3-3.9-1-5.7c-0.7-1.8-1.6-3.3-2.9-4.7c-1.2-1.3-2.7-2.4-4.3-3.2c-1.6-0.8-3.3-1.2-5.2-1.2c-2,0-3.6,0.3-4.9,0.8     c-1.2,0.5-2.4,1.3-3.6,2.4c-0.5,0.4-1.1,0.6-1.7,0.6s-1.1-0.3-1.5-0.7c-0.4-0.4-0.6-0.9-0.6-1.5c0-0.3,0-0.5,0.1-0.7     c0.1-0.2,0.2-0.4,0.3-0.6c0.1-0.2,0.3-0.4,0.6-0.6c1.8-1.5,3.5-2.5,5.3-3.2c1.7-0.6,3.8-1,6.1-1c2.6,0,4.9,0.5,7.1,1.5     c2.2,1,4.1,2.4,5.7,4.1c1.6,1.7,2.9,3.8,3.8,6.1c0.9,2.3,1.4,4.8,1.4,7.5c0,2.7-0.5,5.2-1.4,7.6c-0.9,2.3-2.2,4.4-3.8,6.1     c-1.6,1.7-3.5,3.1-5.7,4.1C215,189.7,212.6,190.2,210.1,190.2z M210,172.9c-0.6,0-1.1-0.2-1.6-0.6c-0.4-0.4-0.6-1-0.6-1.6     c0-0.6,0.2-1.2,0.6-1.6c0.4-0.4,0.9-0.6,1.6-0.6h15.7v4.4H210z"/>
			<path class="st0" d="M237.9,200.9c-0.7,0-1.3-0.2-1.7-0.7c-0.5-0.5-0.7-1-0.7-1.8v-21.9c0-2.5,0.6-4.8,1.7-6.8     c1.1-2,2.6-3.6,4.6-4.8c1.9-1.2,4.1-1.8,6.5-1.8c2.5,0,4.7,0.6,6.6,1.8c1.9,1.2,3.5,2.8,4.6,4.8c1.1,2,1.7,4.3,1.7,6.8     c0,2.5-0.5,4.8-1.6,6.8c-1,2-2.5,3.6-4.3,4.8c-1.8,1.2-3.8,1.8-6.1,1.8c-1.8,0-3.5-0.4-5.1-1.2c-1.5-0.8-2.9-1.8-3.9-3.2v13     c0,0.7-0.2,1.3-0.7,1.8C239.2,200.7,238.6,200.9,237.9,200.9z M248.3,185.6c1.6,0,3-0.4,4.2-1.2c1.2-0.8,2.2-1.9,3-3.2     c0.7-1.4,1.1-2.9,1.1-4.6c0-1.7-0.4-3.3-1.1-4.6c-0.7-1.4-1.7-2.4-3-3.2c-1.2-0.8-2.7-1.2-4.2-1.2c-1.6,0-3,0.4-4.2,1.2     c-1.3,0.8-2.2,1.9-3,3.2c-0.7,1.4-1.1,2.9-1.1,4.6c0,1.7,0.4,3.2,1.1,4.6c0.7,1.4,1.7,2.4,3,3.2     C245.4,185.2,246.8,185.6,248.3,185.6z"/>
			<path class="st0" d="M279.2,189.9c-2.3,0-4.3-0.6-6.1-1.8c-1.8-1.2-3.2-2.8-4.3-4.8c-1-2-1.6-4.3-1.6-6.8c0-2.5,0.6-4.8,1.7-6.8     c1.1-2,2.7-3.6,4.6-4.8c1.9-1.2,4.1-1.8,6.6-1.8s4.6,0.6,6.5,1.8c1.9,1.2,3.5,2.8,4.6,4.8c1.1,2,1.7,4.3,1.7,6.8h-1.8     c0,2.5-0.5,4.8-1.6,6.8c-1,2-2.5,3.6-4.3,4.8C283.5,189.3,281.5,189.9,279.2,189.9z M280.1,185.6c1.6,0,3-0.4,4.2-1.2     c1.2-0.8,2.2-1.9,2.9-3.2c0.7-1.4,1.1-2.9,1.1-4.6c0-1.7-0.4-3.3-1.1-4.6c-0.7-1.4-1.7-2.4-2.9-3.2c-1.2-0.8-2.7-1.2-4.2-1.2     c-1.6,0-3,0.4-4.2,1.2c-1.3,0.8-2.3,1.9-3,3.2c-0.7,1.4-1.1,2.9-1.1,4.6c0,1.7,0.4,3.2,1.1,4.6c0.7,1.4,1.7,2.4,3,3.2     C277.2,185.2,278.6,185.6,280.1,185.6z M290.6,189.8c-0.7,0-1.3-0.2-1.7-0.7c-0.5-0.5-0.7-1-0.7-1.8V180l0.9-5.1l3.9,1.7v10.7     c0,0.7-0.2,1.3-0.7,1.8C291.9,189.5,291.3,189.8,290.6,189.8z"/>
			<path class="st0" d="M309.6,189.9c-2.2,0-4.2-0.3-6-1c-1.9-0.7-3.3-1.6-4.3-2.6c-0.5-0.5-0.7-1.1-0.6-1.8     c0.1-0.7,0.4-1.2,0.9-1.6c0.6-0.5,1.2-0.7,1.8-0.6c0.6,0.1,1.1,0.4,1.6,0.8c0.5,0.6,1.4,1.2,2.5,1.7c1.2,0.5,2.5,0.8,3.9,0.8     c1.8,0,3.2-0.3,4.1-0.9c0.9-0.6,1.4-1.4,1.5-2.4c0-1-0.4-1.8-1.3-2.5c-0.9-0.7-2.6-1.3-5-1.7c-3.1-0.6-5.4-1.6-6.8-2.9     c-1.4-1.3-2.1-2.8-2.1-4.7c0-1.6,0.5-3,1.4-4.1c0.9-1.1,2.1-1.9,3.6-2.4c1.5-0.5,3-0.8,4.6-0.8c2.1,0,3.9,0.3,5.5,1     c1.6,0.7,2.8,1.6,3.8,2.8c0.4,0.5,0.6,1,0.6,1.6c0,0.6-0.3,1-0.8,1.4c-0.5,0.4-1.1,0.5-1.8,0.3c-0.7-0.1-1.3-0.4-1.7-0.9     c-0.8-0.8-1.6-1.3-2.5-1.6c-0.9-0.3-1.9-0.4-3.1-0.4c-1.4,0-2.5,0.2-3.5,0.7c-1,0.5-1.4,1.2-1.4,2.1c0,0.6,0.1,1.1,0.4,1.6     c0.3,0.5,0.9,0.9,1.8,1.2c0.9,0.4,2.1,0.7,3.8,1.1c2.3,0.5,4.2,1.1,5.5,1.8c1.4,0.7,2.3,1.6,2.9,2.6c0.6,1,0.9,2.1,0.9,3.4     c0,1.5-0.4,2.8-1.1,4c-0.8,1.2-1.9,2.1-3.4,2.8C313.7,189.5,311.8,189.9,309.6,189.9z"/>
			<path class="st0" d="M335.2,189.9c-2.2,0-4.2-0.3-6-1c-1.9-0.7-3.3-1.6-4.3-2.6c-0.5-0.5-0.7-1.1-0.6-1.8     c0.1-0.7,0.4-1.2,0.9-1.6c0.6-0.5,1.2-0.7,1.8-0.6c0.6,0.1,1.1,0.4,1.6,0.8c0.5,0.6,1.4,1.2,2.5,1.7c1.2,0.5,2.5,0.8,3.9,0.8     c1.8,0,3.2-0.3,4.1-0.9c0.9-0.6,1.4-1.4,1.5-2.4c0-1-0.4-1.8-1.3-2.5c-0.9-0.7-2.6-1.3-5-1.7c-3.1-0.6-5.4-1.6-6.8-2.9     c-1.4-1.3-2.1-2.8-2.1-4.7c0-1.6,0.5-3,1.4-4.1c0.9-1.1,2.1-1.9,3.6-2.4c1.5-0.5,3-0.8,4.6-0.8c2.1,0,3.9,0.3,5.5,1     c1.6,0.7,2.8,1.6,3.8,2.8c0.4,0.5,0.6,1,0.6,1.6c0,0.6-0.3,1-0.8,1.4c-0.5,0.4-1.1,0.5-1.8,0.3c-0.7-0.1-1.3-0.4-1.7-0.9     c-0.8-0.8-1.6-1.3-2.5-1.6c-0.9-0.3-1.9-0.4-3.1-0.4c-1.4,0-2.5,0.2-3.5,0.7c-1,0.5-1.4,1.2-1.4,2.1c0,0.6,0.1,1.1,0.4,1.6     c0.3,0.5,0.9,0.9,1.8,1.2c0.9,0.4,2.1,0.7,3.8,1.1c2.3,0.5,4.2,1.1,5.5,1.8c1.4,0.7,2.3,1.6,2.9,2.6c0.6,1,0.9,2.1,0.9,3.4     c0,1.5-0.4,2.8-1.1,4c-0.8,1.2-1.9,2.1-3.4,2.8C339.3,189.5,337.4,189.9,335.2,189.9z"/>
		</g>
	</g>
	<g>
		<g>
			<path class="st1" d="M138.2,205.4c-0.3,0-0.5-0.1-0.6-0.2c-0.2-0.2-0.2-0.4-0.2-0.6s0.1-0.5,0.2-0.6c0.2-0.2,0.4-0.2,0.6-0.2h9.6     c0.3,0,0.5,0.1,0.6,0.2c0.2,0.2,0.2,0.4,0.2,0.6s-0.1,0.5-0.2,0.6c-0.2,0.2-0.4,0.2-0.6,0.2H138.2z M143,217.8     c-0.3,0-0.5-0.1-0.7-0.3s-0.3-0.4-0.3-0.7v-13.1h1.9v13.1c0,0.3-0.1,0.5-0.3,0.7S143.3,217.8,143,217.8z"/>
			<path class="st1" d="M150.6,217.8c-0.3,0-0.5-0.1-0.7-0.3c-0.2-0.2-0.3-0.4-0.3-0.7v-8c0-0.3,0.1-0.5,0.3-0.6     c0.2-0.2,0.4-0.3,0.6-0.3c0.3,0,0.5,0.1,0.7,0.3c0.2,0.2,0.3,0.4,0.3,0.7v3.1h3.5v0.4c0.7,0,1.2,0.1,1.8,0.3     c0.5,0.2,0.9,0.5,1.2,0.9c0.3,0.4,0.4,0.9,0.4,1.4c0,0.5-0.1,1-0.4,1.4c-0.3,0.4-0.7,0.8-1.2,1c-0.5,0.2-1.1,0.4-1.8,0.4H150.6z      M153.6,212.9v-1h1.7c0.3,0,0.5-0.1,0.7-0.4c0.2-0.2,0.3-0.5,0.3-0.9c0-0.3-0.1-0.6-0.3-0.8c-0.2-0.2-0.5-0.3-0.9-0.3h-4.5v-1.7     h4.5c0.6,0,1.1,0.1,1.5,0.3c0.4,0.2,0.8,0.5,1,0.9c0.3,0.4,0.4,0.8,0.4,1.3c0,0.7-0.3,1.3-0.8,1.7c-0.5,0.5-1.2,0.7-2,0.7H153.6z      M151.5,216.1h3.5c0.5,0,0.9-0.1,1.2-0.4c0.3-0.2,0.4-0.5,0.4-0.9c0-0.4-0.1-0.7-0.4-1c-0.3-0.3-0.7-0.4-1.2-0.4h-3.5V216.1z"/>
			<path class="st1" d="M164.2,217.8c-1,0-1.8-0.2-2.6-0.6s-1.3-1-1.8-1.8s-0.6-1.6-0.6-2.6c0-1,0.2-1.9,0.6-2.6     c0.4-0.7,1-1.3,1.8-1.8s1.6-0.6,2.6-0.6c1,0,1.8,0.2,2.6,0.6c0.7,0.4,1.3,1,1.8,1.8c0.4,0.8,0.6,1.6,0.6,2.6c0,1-0.2,1.8-0.6,2.6     s-1,1.3-1.7,1.8C166,217.6,165.2,217.8,164.2,217.8z M164.2,216.2c0.6,0,1.2-0.1,1.7-0.4c0.5-0.3,0.9-0.7,1.1-1.2     c0.3-0.5,0.4-1.1,0.4-1.7c0-0.7-0.1-1.2-0.4-1.8c-0.3-0.5-0.6-0.9-1.1-1.2c-0.5-0.3-1-0.4-1.7-0.4s-1.2,0.1-1.7,0.4     c-0.5,0.3-0.9,0.7-1.1,1.2c-0.3,0.5-0.4,1.1-0.4,1.8c0,0.7,0.1,1.2,0.4,1.7c0.3,0.5,0.7,0.9,1.1,1.2     C163,216.1,163.6,216.2,164.2,216.2z"/>
			<path class="st1" d="M175.1,217.9c-0.8,0-1.6-0.2-2.2-0.5c-0.7-0.4-1.2-0.9-1.5-1.6c-0.4-0.7-0.6-1.5-0.6-2.5v-4.4     c0-0.3,0.1-0.5,0.3-0.7c0.2-0.2,0.4-0.3,0.7-0.3s0.5,0.1,0.7,0.3c0.2,0.2,0.3,0.4,0.3,0.7v4.4c0,0.7,0.1,1.2,0.4,1.7     c0.3,0.4,0.6,0.8,1,1s0.9,0.3,1.5,0.3c0.5,0,1-0.1,1.4-0.3c0.4-0.2,0.7-0.5,1-0.8c0.2-0.3,0.4-0.7,0.4-1.2h1.1     c0,0.7-0.2,1.4-0.5,2s-0.9,1.1-1.5,1.4C176.7,217.7,175.9,217.9,175.1,217.9z M175.5,206.6c-0.6,0-1.2-0.1-1.7-0.3     s-0.9-0.5-1.2-0.9s-0.4-0.8-0.4-1.2c0-0.3,0.1-0.5,0.2-0.6c0.2-0.2,0.3-0.3,0.6-0.3c0.2,0,0.4,0.1,0.6,0.3     c0.1,0.2,0.2,0.4,0.2,0.6c0,0.3,0.2,0.6,0.5,0.8s0.7,0.3,1.2,0.3c0.5,0,0.9-0.1,1.2-0.3c0.3-0.2,0.5-0.5,0.5-0.8     c0-0.3,0.1-0.5,0.2-0.6c0.2-0.2,0.3-0.3,0.6-0.3c0.2,0,0.4,0.1,0.6,0.3c0.1,0.2,0.2,0.4,0.2,0.6c0,0.5-0.1,0.9-0.4,1.2     s-0.7,0.7-1.2,0.9C176.7,206.5,176.1,206.6,175.5,206.6z M179.1,217.8c-0.3,0-0.5-0.1-0.7-0.3c-0.2-0.2-0.3-0.4-0.3-0.7v-8     c0-0.3,0.1-0.5,0.3-0.7c0.2-0.2,0.4-0.3,0.7-0.3c0.3,0,0.5,0.1,0.7,0.3s0.3,0.4,0.3,0.7v8c0,0.3-0.1,0.5-0.3,0.7     C179.6,217.7,179.4,217.8,179.1,217.8z"/>
			<path class="st1" d="M187.7,217.8c-0.3,0-0.5-0.1-0.7-0.3c-0.2-0.2-0.3-0.4-0.3-0.7v-8c0-0.3,0.1-0.5,0.3-0.7     c0.2-0.2,0.4-0.3,0.7-0.3c0.3,0,0.5,0.1,0.7,0.3c0.2,0.2,0.3,0.4,0.3,0.7v8c0,0.3-0.1,0.5-0.3,0.7     C188.2,217.7,187.9,217.8,187.7,217.8z M195.1,217.8c-0.3,0-0.5-0.1-0.7-0.3c-0.2-0.2-0.3-0.4-0.3-0.7v-4.4     c0-0.7-0.1-1.2-0.4-1.7s-0.6-0.8-1-1c-0.4-0.2-0.9-0.3-1.5-0.3c-0.5,0-1,0.1-1.4,0.3c-0.4,0.2-0.7,0.5-1,0.8     c-0.2,0.3-0.4,0.7-0.4,1.2h-1.1c0-0.8,0.2-1.4,0.5-2c0.4-0.6,0.9-1.1,1.5-1.4c0.6-0.3,1.4-0.5,2.1-0.5c0.8,0,1.6,0.2,2.2,0.5     c0.7,0.4,1.2,0.9,1.5,1.6s0.6,1.5,0.6,2.5v4.4c0,0.3-0.1,0.5-0.3,0.7C195.5,217.7,195.3,217.8,195.1,217.8z"/>
			<path class="st1" d="M202.6,217.8c-1,0-1.8-0.2-2.6-0.6s-1.3-1-1.8-1.8s-0.6-1.6-0.6-2.6c0-1,0.2-1.9,0.6-2.6     c0.4-0.7,1-1.3,1.8-1.8s1.6-0.6,2.6-0.6c1,0,1.8,0.2,2.6,0.6c0.7,0.4,1.3,1,1.8,1.8c0.4,0.8,0.6,1.6,0.6,2.6c0,1-0.2,1.8-0.6,2.6     s-1,1.3-1.7,1.8C204.4,217.6,203.6,217.8,202.6,217.8z M202.6,216.2c0.6,0,1.2-0.1,1.7-0.4c0.5-0.3,0.9-0.7,1.1-1.2     c0.3-0.5,0.4-1.1,0.4-1.7c0-0.7-0.1-1.2-0.4-1.8c-0.3-0.5-0.6-0.9-1.1-1.2c-0.5-0.3-1-0.4-1.7-0.4s-1.2,0.1-1.7,0.4     c-0.5,0.3-0.9,0.7-1.1,1.2c-0.3,0.5-0.4,1.1-0.4,1.8c0,0.7,0.1,1.2,0.4,1.7c0.3,0.5,0.7,0.9,1.1,1.2     C201.4,216.1,202,216.2,202.6,216.2z"/>
			<path class="st1" d="M210.3,217.8c-0.3,0-0.5-0.1-0.7-0.3c-0.2-0.2-0.3-0.4-0.3-0.7v-8c0-0.3,0.1-0.5,0.3-0.7     c0.2-0.2,0.4-0.3,0.7-0.3c0.4,0,0.7,0.2,1,0.6l3.7,5.4l3.7-5.4c0.3-0.4,0.6-0.6,1-0.6c0.3,0,0.5,0.1,0.7,0.3     c0.2,0.2,0.3,0.4,0.3,0.7v8c0,0.3-0.1,0.5-0.3,0.7c-0.2,0.2-0.4,0.3-0.7,0.3c-0.3,0-0.5-0.1-0.7-0.3c-0.2-0.2-0.3-0.4-0.3-0.7     v-6.6l0.5,0.1l-3.3,4.7c-0.3,0.4-0.6,0.6-1,0.6c-0.3,0-0.7-0.2-1-0.6l-3.3-4.7l0.5-0.1v6.6c0,0.3-0.1,0.5-0.3,0.7     C210.8,217.7,210.6,217.8,210.3,217.8z"/>
			<path class="st1" d="M227.4,217.8c-1,0-1.8-0.2-2.6-0.6s-1.3-1-1.8-1.8s-0.6-1.6-0.6-2.6c0-1,0.2-1.9,0.6-2.6     c0.4-0.7,1-1.3,1.8-1.8s1.6-0.6,2.6-0.6c1,0,1.8,0.2,2.6,0.6c0.7,0.4,1.3,1,1.8,1.8c0.4,0.8,0.6,1.6,0.6,2.6c0,1-0.2,1.8-0.6,2.6     s-1,1.3-1.7,1.8C229.2,217.6,228.4,217.8,227.4,217.8z M227.4,216.2c0.6,0,1.2-0.1,1.7-0.4c0.5-0.3,0.9-0.7,1.1-1.2     c0.3-0.5,0.4-1.1,0.4-1.7c0-0.7-0.1-1.2-0.4-1.8c-0.3-0.5-0.6-0.9-1.1-1.2c-0.5-0.3-1-0.4-1.7-0.4s-1.2,0.1-1.7,0.4     c-0.5,0.3-0.9,0.7-1.1,1.2c-0.3,0.5-0.4,1.1-0.4,1.8c0,0.7,0.1,1.2,0.4,1.7c0.3,0.5,0.7,0.9,1.1,1.2     C226.2,216.1,226.8,216.2,227.4,216.2z"/>
			<path class="st1" d="M237.5,217.9c-0.7,0-1.3-0.1-1.8-0.4s-0.9-0.7-1.2-1.3c-0.3-0.6-0.5-1.3-0.5-2.1v-5.1c0-0.3,0.1-0.5,0.3-0.7     c0.2-0.2,0.4-0.3,0.7-0.3c0.3,0,0.5,0.1,0.7,0.3c0.2,0.2,0.3,0.4,0.3,0.7v5.1c0,0.5,0.1,0.9,0.3,1.3c0.2,0.3,0.4,0.6,0.7,0.7     c0.3,0.2,0.6,0.2,1,0.2c0.6,0,1.2-0.2,1.5-0.6c0.4-0.4,0.6-1,0.6-1.6h0.8c0,0.8-0.1,1.4-0.4,2c-0.3,0.6-0.7,1.1-1.2,1.4     C238.7,217.7,238.1,217.9,237.5,217.9z M243.5,217.9c-0.7,0-1.3-0.1-1.8-0.4s-0.9-0.7-1.2-1.3s-0.4-1.3-0.4-2.1v-5.1     c0-0.3,0.1-0.5,0.3-0.7c0.2-0.2,0.4-0.3,0.7-0.3c0.3,0,0.5,0.1,0.7,0.3c0.2,0.2,0.3,0.4,0.3,0.7v5.1c0,0.5,0.1,0.9,0.3,1.3     s0.4,0.6,0.7,0.7c0.3,0.2,0.7,0.2,1.1,0.2c0.6,0,1.2-0.2,1.6-0.6c0.4-0.4,0.6-1,0.6-1.6h0.8c0,0.8-0.1,1.4-0.4,2     c-0.3,0.6-0.7,1.1-1.2,1.4C244.7,217.7,244.1,217.9,243.5,217.9z M248.7,221c-0.3,0-0.5-0.1-0.6-0.3c-0.2-0.2-0.3-0.4-0.3-0.7     v-2.3h-0.3c-0.5,0-0.9-0.1-1.2-0.4s-0.4-0.6-0.4-1.2v-7.4c0-0.3,0.1-0.5,0.3-0.7s0.4-0.3,0.7-0.3c0.3,0,0.5,0.1,0.7,0.3     c0.2,0.2,0.3,0.4,0.3,0.7v7.4h0.8c0.3,0,0.5,0.1,0.7,0.3c0.2,0.2,0.3,0.4,0.3,0.7v2.9c0,0.3-0.1,0.5-0.2,0.7     C249.2,220.9,249,221,248.7,221z"/>
			<path class="st1" d="M251.4,217.8c-0.3,0-0.5-0.1-0.6-0.3c-0.2-0.2-0.2-0.4-0.2-0.7v-8c0-0.3,0.1-0.5,0.2-0.7     c0.2-0.2,0.4-0.3,0.6-0.3c0.3,0,0.5,0.1,0.7,0.3c0.2,0.2,0.3,0.4,0.3,0.7v8c0,0.3-0.1,0.5-0.3,0.7     C251.9,217.7,251.7,217.8,251.4,217.8z M252.1,213.5v-1.6h6.3v1.6H252.1z M258.8,217.8c-0.3,0-0.5-0.1-0.7-0.3     c-0.2-0.2-0.3-0.4-0.3-0.7v-8c0-0.3,0.1-0.5,0.3-0.7c0.2-0.2,0.4-0.3,0.7-0.3c0.3,0,0.5,0.1,0.6,0.3c0.2,0.2,0.2,0.4,0.2,0.7v8     c0,0.3-0.1,0.5-0.2,0.7C259.3,217.7,259.1,217.8,258.8,217.8z"/>
			<path class="st1" d="M266.2,217.9c-0.8,0-1.6-0.2-2.2-0.5c-0.7-0.4-1.2-0.9-1.5-1.6c-0.4-0.7-0.6-1.5-0.6-2.5v-4.4     c0-0.3,0.1-0.5,0.3-0.7c0.2-0.2,0.4-0.3,0.7-0.3s0.5,0.1,0.7,0.3c0.2,0.2,0.3,0.4,0.3,0.7v4.4c0,0.7,0.1,1.2,0.4,1.7     c0.3,0.4,0.6,0.8,1,1s0.9,0.3,1.5,0.3c0.5,0,1-0.1,1.4-0.3c0.4-0.2,0.7-0.5,1-0.8c0.2-0.3,0.4-0.7,0.4-1.2h1.1     c0,0.7-0.2,1.4-0.5,2s-0.9,1.1-1.5,1.4C267.7,217.7,267,217.9,266.2,217.9z M270.1,217.8c-0.3,0-0.5-0.1-0.7-0.3     c-0.2-0.2-0.3-0.4-0.3-0.7v-8c0-0.3,0.1-0.5,0.3-0.7c0.2-0.2,0.4-0.3,0.7-0.3c0.3,0,0.5,0.1,0.7,0.3s0.3,0.4,0.3,0.7v8     c0,0.3-0.1,0.5-0.3,0.7C270.6,217.7,270.4,217.8,270.1,217.8z"/>
			<path class="st1" d="M274.3,217.8c-0.3,0-0.5-0.1-0.6-0.3c-0.2-0.2-0.2-0.4-0.2-0.7v-8c0-0.3,0.1-0.5,0.2-0.7     c0.2-0.2,0.4-0.3,0.6-0.3c0.3,0,0.5,0.1,0.7,0.3c0.2,0.2,0.3,0.4,0.3,0.7v3h2.3v1.7h-2.3v3.3c0,0.3-0.1,0.5-0.3,0.7     C274.8,217.7,274.5,217.8,274.3,217.8z M281.4,217.6c-0.2,0.1-0.4,0.2-0.7,0.2c-0.3,0-0.5-0.1-0.7-0.2l-4.4-4.7l4.1-4.6     c0.2-0.2,0.4-0.3,0.7-0.3c0.3,0,0.5,0,0.7,0.2c0.2,0.2,0.3,0.4,0.3,0.6c0,0.2,0,0.4-0.2,0.6l-3.3,3.5l3.5,3.7     c0.2,0.2,0.2,0.3,0.2,0.5C281.7,217.2,281.6,217.4,281.4,217.6z"/>
			<path class="st1" d="M288.3,217.8c-0.3,0-0.5-0.1-0.7-0.3c-0.2-0.2-0.3-0.4-0.3-0.7v-8c0-0.3,0.1-0.5,0.3-0.6     c0.2-0.2,0.4-0.3,0.6-0.3c0.3,0,0.5,0.1,0.7,0.3c0.2,0.2,0.3,0.4,0.3,0.7v3.1h3.5v0.4c0.7,0,1.2,0.1,1.8,0.3     c0.5,0.2,0.9,0.5,1.2,0.9c0.3,0.4,0.4,0.9,0.4,1.4c0,0.5-0.1,1-0.4,1.4c-0.3,0.4-0.7,0.8-1.2,1c-0.5,0.2-1.1,0.4-1.8,0.4H288.3z      M291.3,212.9v-1h1.7c0.3,0,0.5-0.1,0.7-0.4c0.2-0.2,0.3-0.5,0.3-0.9c0-0.3-0.1-0.6-0.3-0.8c-0.2-0.2-0.5-0.3-0.9-0.3h-4.5v-1.7     h4.5c0.6,0,1.1,0.1,1.5,0.3c0.4,0.2,0.8,0.5,1,0.9c0.3,0.4,0.4,0.8,0.4,1.3c0,0.7-0.3,1.3-0.8,1.7c-0.5,0.5-1.2,0.7-2,0.7H291.3z      M289.2,216.1h3.5c0.5,0,0.9-0.1,1.2-0.4c0.3-0.2,0.4-0.5,0.4-0.9c0-0.4-0.1-0.7-0.4-1c-0.3-0.3-0.7-0.4-1.2-0.4h-3.5V216.1z"/>
			<path class="st1" d="M302.8,217.8c-0.3,0-0.5-0.1-0.7-0.3c-0.2-0.2-0.3-0.4-0.3-0.7v-8c0-0.3,0.1-0.5,0.3-0.7     c0.2-0.2,0.4-0.3,0.7-0.3c0.3,0,0.5,0.1,0.7,0.3c0.2,0.2,0.3,0.4,0.3,0.7v8c0,0.3-0.1,0.5-0.3,0.7     C303.3,217.7,303,217.8,302.8,217.8z M310.2,217.8c-0.3,0-0.5-0.1-0.7-0.3c-0.2-0.2-0.3-0.4-0.3-0.7v-4.4c0-0.7-0.1-1.2-0.4-1.7     s-0.6-0.8-1-1c-0.4-0.2-0.9-0.3-1.5-0.3c-0.5,0-1,0.1-1.4,0.3c-0.4,0.2-0.7,0.5-1,0.8c-0.2,0.3-0.4,0.7-0.4,1.2h-1.1     c0-0.8,0.2-1.4,0.5-2c0.4-0.6,0.9-1.1,1.5-1.4c0.6-0.3,1.4-0.5,2.1-0.5c0.8,0,1.6,0.2,2.2,0.5c0.7,0.4,1.2,0.9,1.5,1.6     s0.6,1.5,0.6,2.5v4.4c0,0.3-0.1,0.5-0.3,0.7C310.6,217.7,310.4,217.8,310.2,217.8z"/>
			<path class="st1" d="M317.7,217.8c-1,0-1.8-0.2-2.6-0.6s-1.3-1-1.8-1.8s-0.6-1.6-0.6-2.6c0-1,0.2-1.9,0.6-2.6     c0.4-0.7,1-1.3,1.8-1.8s1.6-0.6,2.6-0.6c1,0,1.8,0.2,2.6,0.6c0.7,0.4,1.3,1,1.8,1.8c0.4,0.8,0.6,1.6,0.6,2.6c0,1-0.2,1.8-0.6,2.6     s-1,1.3-1.7,1.8C319.5,217.6,318.7,217.8,317.7,217.8z M317.7,216.2c0.6,0,1.2-0.1,1.7-0.4c0.5-0.3,0.9-0.7,1.1-1.2     c0.3-0.5,0.4-1.1,0.4-1.7c0-0.7-0.1-1.2-0.4-1.8c-0.3-0.5-0.6-0.9-1.1-1.2c-0.5-0.3-1-0.4-1.7-0.4s-1.2,0.1-1.7,0.4     c-0.5,0.3-0.9,0.7-1.1,1.2c-0.3,0.5-0.4,1.1-0.4,1.8c0,0.7,0.1,1.2,0.4,1.7c0.3,0.5,0.7,0.9,1.1,1.2     C316.5,216.1,317.1,216.2,317.7,216.2z"/>
			<path class="st1" d="M328.6,217.8c-0.9,0-1.7-0.2-2.4-0.6s-1.2-1-1.6-1.8s-0.6-1.6-0.6-2.6c0-1,0.2-1.9,0.6-2.6     c0.4-0.7,1-1.3,1.8-1.8s1.6-0.6,2.6-0.6c1,0,1.8,0.2,2.6,0.6c0.7,0.4,1.3,1,1.8,1.8c0.4,0.8,0.6,1.6,0.6,2.6h-1.1     c0,1-0.2,1.8-0.5,2.6s-0.9,1.3-1.5,1.8C330.1,217.6,329.4,217.8,328.6,217.8z M328.9,221.9c-0.9,0-1.6-0.2-2.4-0.5     s-1.4-0.8-1.9-1.5c-0.2-0.2-0.2-0.4-0.2-0.6c0-0.2,0.2-0.4,0.4-0.5c0.2-0.1,0.4-0.2,0.7-0.1c0.2,0,0.4,0.2,0.6,0.4     c0.3,0.4,0.7,0.7,1.2,1c0.5,0.2,1,0.3,1.7,0.3c0.6,0,1.1-0.1,1.6-0.4c0.5-0.3,0.9-0.7,1.2-1.2s0.4-1.2,0.4-2v-2.6l0.6-1.6     l1.2,0.4v3.9c0,0.9-0.2,1.8-0.6,2.6s-1,1.4-1.8,1.8S329.9,221.9,328.9,221.9z M328.9,216.2c0.6,0,1.2-0.1,1.7-0.4     c0.5-0.3,0.9-0.7,1.1-1.2c0.3-0.5,0.4-1.1,0.4-1.7c0-0.7-0.1-1.2-0.4-1.8c-0.3-0.5-0.6-0.9-1.1-1.2c-0.5-0.3-1-0.4-1.7-0.4     s-1.2,0.1-1.7,0.4c-0.5,0.3-0.9,0.7-1.1,1.2c-0.3,0.5-0.4,1.1-0.4,1.8c0,0.7,0.1,1.2,0.4,1.7c0.3,0.5,0.7,0.9,1.1,1.2     C327.8,216.1,328.3,216.2,328.9,216.2z"/>
			<path class="st1" d="M338.8,217.8c-0.8,0-1.4-0.1-2-0.4c-0.6-0.2-1.1-0.6-1.4-1c-0.3-0.4-0.5-0.9-0.5-1.4s0.2-1,0.5-1.4     c0.3-0.4,0.7-0.7,1.3-1c0.6-0.3,1.3-0.5,2.1-0.6c0.8-0.2,1.4-0.4,1.7-0.6c0.3-0.2,0.4-0.5,0.4-0.9c0-0.4-0.2-0.7-0.6-0.9     c-0.4-0.2-0.8-0.3-1.3-0.3c-0.4,0-0.8,0.1-1.3,0.2c-0.4,0.1-0.8,0.3-1,0.6c-0.2,0.2-0.4,0.3-0.6,0.3c-0.2,0.1-0.4,0-0.5,0     c-0.2-0.1-0.4-0.3-0.4-0.6c-0.1-0.2,0-0.4,0.2-0.6c0.4-0.4,0.9-0.8,1.5-1.1c0.7-0.3,1.4-0.4,2.2-0.4c0.7,0,1.3,0.1,1.8,0.3     c0.6,0.2,1,0.5,1.3,0.9c0.3,0.4,0.5,0.9,0.5,1.5c0,0.7-0.3,1.3-0.8,1.8c-0.6,0.5-1.4,0.8-2.6,1.1c-0.9,0.2-1.6,0.4-2,0.7     c-0.4,0.3-0.5,0.6-0.5,0.9c0,0.4,0.2,0.7,0.5,0.9c0.3,0.2,0.9,0.3,1.6,0.3c0.6,0,1.2-0.1,1.6-0.2s0.8-0.3,1-0.6     c0.2-0.2,0.4-0.3,0.6-0.4c0.2-0.1,0.4,0,0.7,0.2c0.2,0.2,0.3,0.4,0.3,0.6c0,0.2-0.1,0.4-0.3,0.6c-0.4,0.4-0.9,0.7-1.7,1     C340.3,217.7,339.5,217.8,338.8,217.8z"/>
			<path class="st1" d="M348.7,217.8c-1,0-1.8-0.2-2.6-0.6s-1.3-1-1.8-1.8s-0.6-1.6-0.6-2.6c0-1,0.2-1.9,0.6-2.6     c0.4-0.7,1-1.3,1.8-1.8s1.6-0.6,2.6-0.6c1,0,1.8,0.2,2.6,0.6c0.7,0.4,1.3,1,1.8,1.8c0.4,0.8,0.6,1.6,0.6,2.6c0,1-0.2,1.8-0.6,2.6     s-1,1.3-1.7,1.8C350.6,217.6,349.7,217.8,348.7,217.8z M348.7,216.2c0.6,0,1.2-0.1,1.7-0.4c0.5-0.3,0.9-0.7,1.1-1.2     c0.3-0.5,0.4-1.1,0.4-1.7c0-0.7-0.1-1.2-0.4-1.8c-0.3-0.5-0.6-0.9-1.1-1.2c-0.5-0.3-1-0.4-1.7-0.4s-1.2,0.1-1.7,0.4     c-0.5,0.3-0.9,0.7-1.1,1.2c-0.3,0.5-0.4,1.1-0.4,1.8c0,0.7,0.1,1.2,0.4,1.7c0.3,0.5,0.7,0.9,1.1,1.2     C347.6,216.1,348.1,216.2,348.7,216.2z"/>
			<path class="st1" d="M356.5,217.8c-0.3,0-0.5-0.1-0.7-0.3c-0.2-0.2-0.3-0.4-0.3-0.7v-8c0-0.3,0.1-0.5,0.3-0.7     c0.2-0.2,0.4-0.3,0.7-0.3c0.3,0,0.5,0.1,0.7,0.3c0.2,0.2,0.3,0.4,0.3,0.7v8c0,0.3-0.1,0.5-0.3,0.7     C356.9,217.7,356.7,217.8,356.5,217.8z M362.5,217.8c-0.3,0-0.5-0.1-0.7-0.3c-0.2-0.2-0.3-0.4-0.3-0.7v-5.1     c0-0.8-0.2-1.3-0.6-1.7c-0.4-0.4-0.9-0.5-1.5-0.5c-0.6,0-1.1,0.2-1.5,0.6c-0.4,0.4-0.6,1-0.6,1.7h-1.1c0-0.8,0.2-1.5,0.5-2.1     c0.3-0.6,0.7-1.1,1.3-1.4c0.6-0.3,1.2-0.5,1.9-0.5c0.7,0,1.3,0.2,1.8,0.5c0.5,0.3,0.9,0.7,1.2,1.3s0.4,1.3,0.4,2.1v5.1     c0,0.3-0.1,0.5-0.3,0.7C363,217.7,362.7,217.8,362.5,217.8z M368.5,217.8c-0.3,0-0.5-0.1-0.7-0.3c-0.2-0.2-0.3-0.4-0.3-0.7v-5.1     c0-0.8-0.2-1.3-0.6-1.7c-0.4-0.4-0.9-0.5-1.5-0.5c-0.6,0-1.1,0.2-1.5,0.6c-0.4,0.4-0.6,1-0.6,1.7h-1.5c0-0.8,0.2-1.5,0.5-2.1     c0.3-0.6,0.8-1.1,1.4-1.4c0.6-0.3,1.3-0.5,2.1-0.5c0.7,0,1.3,0.2,1.8,0.5c0.5,0.3,0.9,0.7,1.2,1.3s0.4,1.3,0.4,2.1v5.1     c0,0.3-0.1,0.5-0.3,0.7C369,217.7,368.7,217.8,368.5,217.8z"/>
			<path class="st1" d="M376,217.8c-1,0-1.8-0.2-2.6-0.6s-1.3-1-1.8-1.8s-0.6-1.6-0.6-2.6c0-1,0.2-1.9,0.6-2.6     c0.4-0.7,1-1.3,1.8-1.8s1.6-0.6,2.6-0.6c1,0,1.8,0.2,2.6,0.6c0.7,0.4,1.3,1,1.8,1.8c0.4,0.8,0.6,1.6,0.6,2.6c0,1-0.2,1.8-0.6,2.6     s-1,1.3-1.7,1.8C377.8,217.6,377,217.8,376,217.8z M376,216.2c0.6,0,1.2-0.1,1.7-0.4c0.5-0.3,0.9-0.7,1.1-1.2     c0.3-0.5,0.4-1.1,0.4-1.7c0-0.7-0.1-1.2-0.4-1.8c-0.3-0.5-0.6-0.9-1.1-1.2c-0.5-0.3-1-0.4-1.7-0.4s-1.2,0.1-1.7,0.4     c-0.5,0.3-0.9,0.7-1.1,1.2c-0.3,0.5-0.4,1.1-0.4,1.8c0,0.7,0.1,1.2,0.4,1.7c0.3,0.5,0.7,0.9,1.1,1.2     C374.8,216.1,375.4,216.2,376,216.2z"/>
			<path class="st1" d="M383.7,217.8c-0.3,0-0.5-0.1-0.7-0.3c-0.2-0.2-0.3-0.4-0.3-0.7v-8c0-0.3,0.1-0.5,0.3-0.6     c0.2-0.2,0.4-0.3,0.6-0.3c0.3,0,0.5,0.1,0.7,0.3c0.2,0.2,0.3,0.4,0.3,0.7v3.1h3.5v0.4c0.7,0,1.2,0.1,1.8,0.3     c0.5,0.2,0.9,0.5,1.2,0.9c0.3,0.4,0.4,0.9,0.4,1.4c0,0.5-0.1,1-0.4,1.4c-0.3,0.4-0.7,0.8-1.2,1c-0.5,0.2-1.1,0.4-1.8,0.4H383.7z      M386.7,212.9v-1h1.7c0.3,0,0.5-0.1,0.7-0.4c0.2-0.2,0.3-0.5,0.3-0.9c0-0.3-0.1-0.6-0.3-0.8c-0.2-0.2-0.5-0.3-0.9-0.3h-4.5v-1.7     h4.5c0.6,0,1.1,0.1,1.5,0.3c0.4,0.2,0.8,0.5,1,0.9c0.3,0.4,0.4,0.8,0.4,1.3c0,0.7-0.3,1.3-0.8,1.7c-0.5,0.5-1.2,0.7-2,0.7H386.7z      M384.6,216.1h3.5c0.5,0,0.9-0.1,1.2-0.4c0.3-0.2,0.4-0.5,0.4-0.9c0-0.4-0.1-0.7-0.4-1c-0.3-0.3-0.7-0.4-1.2-0.4h-3.5V216.1z"/>
			<path class="st1" d="M393.7,217.8c-0.3,0-0.5-0.1-0.6-0.3c-0.2-0.2-0.2-0.4-0.2-0.7v-8c0-0.3,0.1-0.5,0.2-0.7     c0.2-0.2,0.4-0.3,0.6-0.3c0.3,0,0.5,0.1,0.7,0.3c0.2,0.2,0.3,0.4,0.3,0.7v3h2.3v1.7h-2.3v3.3c0,0.3-0.1,0.5-0.3,0.7     C394.2,217.7,394,217.8,393.7,217.8z M400.8,217.6c-0.2,0.1-0.4,0.2-0.7,0.2c-0.3,0-0.5-0.1-0.7-0.2l-4.4-4.7l4.1-4.6     c0.2-0.2,0.4-0.3,0.7-0.3c0.3,0,0.5,0,0.7,0.2c0.2,0.2,0.3,0.4,0.3,0.6c0,0.2,0,0.4-0.2,0.6l-3.3,3.5l3.5,3.7     c0.2,0.2,0.2,0.3,0.2,0.5C401.1,217.2,401,217.4,400.8,217.6z"/>
			<path class="st1" d="M407.1,217.8c-1,0-1.9-0.2-2.7-0.6c-0.8-0.4-1.4-1-1.8-1.8s-0.7-1.6-0.7-2.6c0-1,0.2-1.9,0.6-2.6     c0.4-0.7,1-1.3,1.7-1.8s1.6-0.6,2.5-0.6c0.9,0,1.7,0.2,2.4,0.6c0.7,0.4,1.2,1,1.5,1.7s0.5,1.6,0.5,2.5c0,0.2-0.1,0.4-0.2,0.6     c-0.2,0.1-0.4,0.2-0.6,0.2h-7.3V212h7.2l-0.7,0.5c0-0.6-0.1-1.1-0.4-1.6c-0.2-0.5-0.6-0.8-1-1.1c-0.4-0.3-0.9-0.4-1.5-0.4     c-0.7,0-1.3,0.2-1.8,0.5c-0.5,0.3-0.9,0.7-1.1,1.2c-0.3,0.5-0.4,1.1-0.4,1.8c0,0.7,0.1,1.2,0.5,1.8c0.3,0.5,0.7,0.9,1.2,1.2     c0.5,0.3,1.1,0.4,1.8,0.4c0.4,0,0.8-0.1,1.1-0.2c0.4-0.1,0.7-0.3,0.9-0.5c0.2-0.1,0.4-0.2,0.6-0.2c0.2,0,0.4,0.1,0.5,0.2     c0.2,0.2,0.3,0.4,0.3,0.6c0,0.2-0.1,0.4-0.3,0.6c-0.4,0.3-0.9,0.6-1.5,0.8S407.6,217.8,407.1,217.8z"/>
			<path class="st1" d="M418,217.8c-0.3,0-0.5-0.1-0.6-0.3c-0.2-0.2-0.2-0.4-0.2-0.7v-8c0-0.3,0.1-0.5,0.2-0.7     c0.2-0.2,0.4-0.3,0.6-0.3c0.3,0,0.5,0.1,0.7,0.3c0.2,0.2,0.3,0.4,0.3,0.7v3h2.3v1.7h-2.3v3.3c0,0.3-0.1,0.5-0.3,0.7     C418.5,217.7,418.2,217.8,418,217.8z M425.1,217.6c-0.2,0.1-0.4,0.2-0.7,0.2c-0.3,0-0.5-0.1-0.7-0.2l-4.4-4.7l4.1-4.6     c0.2-0.2,0.4-0.3,0.7-0.3c0.3,0,0.5,0,0.7,0.2c0.2,0.2,0.3,0.4,0.3,0.6c0,0.2,0,0.4-0.2,0.6l-3.3,3.5l3.5,3.7     c0.2,0.2,0.2,0.3,0.2,0.5C425.4,217.2,425.3,217.4,425.1,217.6z"/>
			<path class="st1" d="M432.2,217.8c-0.3,0-0.5-0.1-0.7-0.3c-0.2-0.2-0.3-0.4-0.3-0.7v-12.2c0-0.3,0.1-0.5,0.3-0.7     c0.2-0.2,0.4-0.3,0.7-0.3h8.1c0.3,0,0.5,0.1,0.7,0.2c0.2,0.2,0.3,0.4,0.3,0.6c0,0.3-0.1,0.5-0.3,0.6c-0.2,0.2-0.4,0.2-0.7,0.2     h-7.2v4.4h5.2c0.3,0,0.5,0.1,0.7,0.2s0.3,0.4,0.3,0.6c0,0.3-0.1,0.5-0.3,0.6c-0.2,0.2-0.4,0.2-0.7,0.2h-5.2v4.5h7.2     c0.3,0,0.5,0.1,0.7,0.2c0.2,0.2,0.3,0.4,0.3,0.6c0,0.3-0.1,0.5-0.3,0.6c-0.2,0.2-0.4,0.2-0.7,0.2H432.2z"/>
			<path class="st1" d="M443.9,217.8c-0.3,0-0.5-0.1-0.7-0.3c-0.2-0.2-0.3-0.4-0.3-0.7v-12.2c0-0.3,0.1-0.5,0.3-0.7     c0.2-0.2,0.4-0.3,0.7-0.3h7.4c0.3,0,0.5,0.1,0.7,0.2s0.3,0.4,0.3,0.6c0,0.3-0.1,0.5-0.3,0.6c-0.2,0.2-0.4,0.2-0.7,0.2h-6.5v11.4     c0,0.3-0.1,0.5-0.3,0.7C444.4,217.7,444.2,217.8,443.9,217.8z"/>
			<path class="st1" d="M457.4,218c-0.8,0-1.6-0.1-2.3-0.4c-0.7-0.3-1.4-0.7-2.1-1.2c-0.1-0.1-0.2-0.2-0.2-0.3     c0-0.1-0.1-0.2-0.1-0.4c0-0.3,0.1-0.5,0.2-0.6s0.3-0.2,0.5-0.3c0.2,0,0.4,0.1,0.6,0.2c0.5,0.4,1,0.7,1.6,0.9     c0.5,0.2,1.1,0.3,1.7,0.3c0.7,0,1.4-0.1,2-0.4c0.6-0.3,1.2-0.7,1.6-1.2c0.5-0.5,0.8-1.1,1.1-1.8c0.3-0.7,0.4-1.4,0.4-2.2     c0-0.8-0.1-1.5-0.4-2.1c-0.3-0.7-0.6-1.3-1.1-1.8c-0.5-0.5-1-0.9-1.6-1.2c-0.6-0.3-1.3-0.4-2-0.4c-0.8,0-1.4,0.1-1.9,0.3     c-0.5,0.2-0.9,0.5-1.4,0.9c-0.2,0.2-0.4,0.2-0.7,0.2c-0.2,0-0.4-0.1-0.6-0.3s-0.2-0.3-0.2-0.6c0-0.1,0-0.2,0-0.3s0.1-0.2,0.1-0.2     s0.1-0.2,0.2-0.2c0.7-0.6,1.4-0.9,2-1.2c0.7-0.2,1.5-0.4,2.4-0.4c1,0,1.9,0.2,2.7,0.6c0.8,0.4,1.6,0.9,2.2,1.5     c0.6,0.7,1.1,1.4,1.5,2.3c0.4,0.9,0.5,1.8,0.5,2.8c0,1-0.2,2-0.5,2.8c-0.4,0.9-0.8,1.6-1.5,2.3c-0.6,0.7-1.4,1.2-2.2,1.5     C459.3,217.8,458.4,218,457.4,218z M457.4,211.5c-0.2,0-0.4-0.1-0.6-0.2c-0.2-0.2-0.2-0.4-0.2-0.6c0-0.2,0.1-0.4,0.2-0.6     c0.2-0.2,0.4-0.2,0.6-0.2h6.1v1.7H457.4z"/>
		</g>
	</g>
	<rect x="21.8" y="138.2" class="st0" width="100" height="22.8"/>
	<rect x="21.8" y="174.3" class="st0" width="100" height="22.8"/>
	<rect x="21.8" y="210.4" class="st0" width="100" height="22.8"/>
	<rect x="29" y="142" class="st2" width="5.7" height="15.2"/>
	<rect x="29" y="178.1" class="st2" width="5.7" height="15.2"/>
	<rect x="29" y="214.2" class="st2" width="5.7" height="15.2"/>
	
		<rect x="42.5" y="218.5" transform="matrix(-1.836970e-16 1 -1 -1.836970e-16 271.4929 180.7103)" class="st2" width="5.7" height="15.2"/>
	
		<rect x="42.5" y="146.7" transform="matrix(-1.836970e-16 1 -1 -1.836970e-16 199.7037 108.9211)" class="st2" width="5.7" height="15.2"/>
	
		<rect x="42.5" y="182.1" transform="matrix(-1.836970e-16 1 -1 -1.836970e-16 235.0983 144.3157)" class="st2" width="5.7" height="15.2"/>
	<rect x="65" y="142" class="st2" width="5.7" height="15.2"/>
	<rect x="64" y="178.1" class="st2" width="5.7" height="15.2"/>
	<rect x="63.9" y="214" class="st2" width="5.7" height="15.2"/>
	<rect x="74" y="142" class="st2" width="5.7" height="15.2"/>
	<rect x="82.9" y="142" class="st2" width="5.7" height="15.2"/>
	<rect x="102.4" y="142.1" transform="matrix(0.866 0.5 -0.5 0.866 88.9727 -32.5601)" class="st2" width="5.7" height="15.2"/>
	
		<rect x="101.5" y="182.1" transform="matrix(-1.836970e-16 1 -1 -1.836970e-16 294.024 85.39)" class="st2" width="5.7" height="15.2"/>
	
		<rect x="114.1" y="142.1" transform="matrix(-0.955 0.2965 -0.2965 -0.955 272.9688 258.0992)" class="st2" width="5.7" height="15.2"/>
	<rect x="114.1" y="177.7" class="st2" width="5.7" height="15.2"/>
	
		<rect x="114.1" y="212.7" transform="matrix(-0.9485 -0.3168 0.3168 -0.9485 158.0284 466.2074)" class="st2" width="5.7" height="15.2"/>
	
		<rect x="99.5" y="218.5" transform="matrix(6.123234e-17 -1 1 6.123234e-17 -123.7845 328.4186)" class="st2" width="5.7" height="15.2"/>
	
		<rect x="42.5" y="137.6" transform="matrix(-1.836970e-16 1 -1 -1.836970e-16 190.6403 99.8577)" class="st2" width="5.7" height="15.2"/>
	
		<rect x="42.5" y="209.4" transform="matrix(-1.836970e-16 1 -1 -1.836970e-16 262.4294 171.6469)" class="st2" width="5.7" height="15.2"/>
</g>
</svg>